<svg width="466" height="229" viewBox="0 0 466 229" fill="none" xmlns="http://www.w3.org/2000/svg">
<rect y="1" width="466" height="222" fill="#491D88"/>
<path d="M179 111.5C120.6 105.9 34 56.1667 0 32V191.5C7.66667 171 57.4 126.3 179 111.5Z" fill="#43B5A0"/>
<path d="M466 0C403 77 252.667 108.401 177 110.91C212.167 118.271 287.6 133.394 308 132.992C328.4 132.591 421.833 85.3157 466 61.7284V0Z" fill="#FEC859"/>
<path d="M177 111.5C127.553 111.5 37.7928 57.908 0 32.3575V1H466C427.541 77.1538 232.94 111.5 177 111.5Z" fill="#FA448C"/>
<path fill-rule="evenodd" clip-rule="evenodd" d="M466 207.67V229H0V183.987C51.0566 134.161 131.725 102 222.5 102C326.956 102 418.029 144.585 466 207.67Z" fill="black"/>
</svg>
